<svg xmlns="http://www.w3.org/2000/svg" xmlns:xlink="http://www.w3.org/1999/xlink" width="64" height="64" viewBox="0 0 64 64">
  <defs>
    <clipPath id="clip-path">
      <rect id="Rectangle_26" data-name="Rectangle 26" width="35.979" height="63.724" fill="none"/>
    </clipPath>
    <clipPath id="clip-path-2">
      <path id="Path_120" data-name="Path 120" d="M18.194,3.134c-.066,0-.133,0-.2,0-1.915.048-5.388.857-8.1,5.007A20.964,20.964,0,0,0,6.615,20.764C6.864,24.5,9.983,33.2,10.609,36.021s2.377,18.507,3.99,20.8a6.009,6.009,0,0,0,5.012,2.67,6.393,6.393,0,0,0,.981-.076A5.841,5.841,0,0,0,25.71,54.8c.569-3.027-.179-11.658-.73-16.544S23.906,30.8,25,26.934s1.881-5.35,2.082-8.494c.2-3.119-.917-15.307-8.89-15.307Z" transform="translate(-6.573 -3.133)" fill="none"/>
    </clipPath>
    <clipPath id="clip-Chaco_PDP_NoSlipAllGrip">
      <rect width="64" height="64"/>
    </clipPath>
  </defs>
  <g id="Chaco_PDP_NoSlipAllGrip" clip-path="url(#clip-Chaco_PDP_NoSlipAllGrip)">
    <g id="Group_65" data-name="Group 65" transform="translate(15 0)">
      <g id="Group_62" data-name="Group 62" transform="translate(0 0)">
        <g id="Group_61" data-name="Group 61" clip-path="url(#clip-path)">
          <path id="Path_111" data-name="Path 111" d="M20.228,63.724a8.2,8.2,0,0,1-6.844-3.635c-1.575-2.234-3.061-9.17-4.45-16.084-.229-1.145-.421-2.1-.565-2.745-.252-1.134-.856-3.109-1.555-5.4C5.416,31.29,3.675,25.6,3.468,22.477A26.492,26.492,0,0,1,7.618,6.52C11.365.783,16.287.052,18.23,0L18.5,0h0a9.009,9.009,0,0,1,6.759,2.943c4.7,4.956,5.124,14.425,4.98,16.69A26.716,26.716,0,0,1,28.7,26.759c-.311.985-.662,2.093-1.042,3.438-1.129,3.979-.8,6.778-.244,11.417.078.659.161,1.352.243,2.09.173,1.525.361,2.9.534,4.16.5,3.647.894,6.527.351,9.415a8.05,8.05,0,0,1-6.982,6.341,8.7,8.7,0,0,1-1.335.1M18.5,1.733h0l-.213,0c-2.077.053-6.02.864-9.2,5.727a24.731,24.731,0,0,0-3.873,14.9c.194,2.923,1.9,8.51,3.275,13,.709,2.32,1.322,4.326,1.589,5.525.146.653.34,1.62.573,2.78.934,4.651,2.672,13.306,4.168,15.431a6.482,6.482,0,0,0,5.409,2.893,6.949,6.949,0,0,0,1.064-.082c1.112-.172,4.8-1.04,5.532-4.945.492-2.615.133-5.236-.364-8.866-.175-1.273-.364-2.66-.538-4.2-.083-.734-.165-1.425-.243-2.08-.557-4.684-.925-7.78.3-12.089.387-1.364.742-2.488,1.057-3.488a24.969,24.969,0,0,0,1.458-6.718c.2-3.123-.664-11.337-4.51-15.394a7.309,7.309,0,0,0-5.484-2.4" transform="translate(0 0)"/>
        </g>
      </g>
      <g id="Group_64" data-name="Group 64" transform="translate(6.573 3.104)">
        <g id="Group_63" data-name="Group 63" clip-path="url(#clip-path-2)">
          <path id="Path_112" data-name="Path 112" d="M.647,7.716l3.465,3.766L7.578,7.716l3.468,3.766,3.468-3.766,3.464,3.766,3.468-3.766,3.468,3.766,3.47-3.766,3.474,3.766,3.475-3.766" transform="translate(-6.573 -3.175)" fill="none" stroke="#000" stroke-miterlimit="10" stroke-width="1.75"/>
          <path id="Path_113" data-name="Path 113" d="M.647,14.071l3.465,3.766,3.466-3.766,3.468,3.766,3.468-3.766,3.464,3.766,3.468-3.766,3.468,3.766,3.47-3.766,3.474,3.766,3.475-3.766" transform="translate(-6.573 -3.234)" fill="none" stroke="#000" stroke-miterlimit="10" stroke-width="1.75"/>
          <path id="Path_114" data-name="Path 114" d="M.647,20.427l3.465,3.766,3.466-3.766,3.468,3.766,3.468-3.766,3.464,3.766,3.468-3.766,3.468,3.766,3.47-3.766,3.474,3.766,3.475-3.766" transform="translate(-6.573 -3.292)" fill="none" stroke="#000" stroke-miterlimit="10" stroke-width="1.75"/>
          <path id="Path_115" data-name="Path 115" d="M.647,26.782l3.465,3.766,3.466-3.766,3.468,3.766,3.468-3.766,3.464,3.766,3.468-3.766,3.468,3.766,3.47-3.766,3.474,3.766,3.475-3.766" transform="translate(-6.573 -3.351)" fill="none" stroke="#000" stroke-miterlimit="10" stroke-width="1.75"/>
          <path id="Path_116" data-name="Path 116" d="M.647,33.137,4.112,36.9l3.466-3.766L11.046,36.9l3.468-3.766L17.978,36.9l3.468-3.766L24.914,36.9l3.47-3.766L31.858,36.9l3.475-3.766" transform="translate(-6.573 -3.409)" fill="none" stroke="#000" stroke-miterlimit="10" stroke-width="1.75"/>
          <path id="Path_117" data-name="Path 117" d="M.647,39.492l3.465,3.766,3.466-3.766,3.468,3.766,3.468-3.766,3.464,3.766,3.468-3.766,3.468,3.766,3.47-3.766,3.474,3.766,3.475-3.766" transform="translate(-6.573 -3.468)" fill="none" stroke="#000" stroke-miterlimit="10" stroke-width="1.75"/>
          <path id="Path_118" data-name="Path 118" d="M.647,45.847l3.465,3.766,3.466-3.766,3.468,3.766,3.468-3.766,3.464,3.766,3.468-3.766,3.468,3.766,3.47-3.766,3.474,3.766,3.475-3.766" transform="translate(-6.573 -3.526)" fill="none" stroke="#000" stroke-miterlimit="10" stroke-width="1.75"/>
          <path id="Path_119" data-name="Path 119" d="M.647,52.2l3.465,3.766L7.578,52.2l3.468,3.766L14.514,52.2l3.464,3.766L21.446,52.2l3.468,3.766,3.47-3.766,3.474,3.766L35.333,52.2" transform="translate(-6.573 -3.585)" fill="none" stroke="#000" stroke-miterlimit="10" stroke-width="1.75"/>
        </g>
      </g>
    </g>
  </g>
</svg>
