<svg xmlns="http://www.w3.org/2000/svg" xmlns:xlink="http://www.w3.org/1999/xlink" width="64" height="64" viewBox="0 0 64 64">
  <defs>
    <clipPath id="clip-path">
      <rect id="Rectangle_25" data-name="Rectangle 25" width="61.369" height="64" fill="none"/>
    </clipPath>
    <clipPath id="clip-Chaco_PDP_AdjustableStraps">
      <rect width="64" height="64"/>
    </clipPath>
  </defs>
  <g id="Chaco_PDP_AdjustableStraps" clip-path="url(#clip-Chaco_PDP_AdjustableStraps)">
    <g id="Group_60" data-name="Group 60" transform="translate(1)">
      <g id="Group_59" data-name="Group 59" clip-path="url(#clip-path)">
        <path id="Path_107" data-name="Path 107" d="M11.411,45.218a1.2,1.2,0,0,1-.855-.353l-10-10a1.924,1.924,0,0,1,0-2.715l10-10a1.236,1.236,0,0,1,1.709,0l1.875,1.875a1.209,1.209,0,0,1,0,1.711l-5.256,5.23H25.455a1.209,1.209,0,0,1,1.208,1.208V34.84a1.209,1.209,0,0,1-1.208,1.208H8.883l5.256,5.23a1.208,1.208,0,0,1,0,1.709l-1.876,1.877a1.2,1.2,0,0,1-.855.353m0-21.864L1.586,33.179a.471.471,0,0,0,0,.666l9.824,9.825,1.533-1.534L5.372,34.6H25.214V32.425H5.372l7.573-7.537Z" transform="translate(0 -0.728)"/>
        <path id="Path_108" data-name="Path 108" d="M51.41,45.72l-3.586-3.586,6.114-6.086H37.365a1.209,1.209,0,0,1-1.208-1.208V32.183a1.209,1.209,0,0,1,1.208-1.208H53.937l-5.256-5.23a1.207,1.207,0,0,1,0-1.711l1.875-1.875a1.209,1.209,0,0,1,1.709,0l9.573,9.573a2.517,2.517,0,0,1,0,3.562Zm-1.534-3.584,1.534,1.534,9.4-9.4a1.065,1.065,0,0,0,0-1.511l-9.4-9.4-1.533,1.534,7.573,7.537H37.607V34.6H57.449Z" transform="translate(-1.206 -0.727)"/>
        <path id="Path_109" data-name="Path 109" d="M33,26.664H30.347a1.21,1.21,0,0,1-1.208-1.208V8.882l-5.23,5.257a1.211,1.211,0,0,1-1.711,0l-1.876-1.877a1.208,1.208,0,0,1,0-1.708l10-10a1.926,1.926,0,0,1,2.716,0l10,10a1.21,1.21,0,0,1,0,1.708l-1.876,1.876a1.2,1.2,0,0,1-.855.354h0a1.206,1.206,0,0,1-.855-.356L34.211,8.882V25.455A1.209,1.209,0,0,1,33,26.664m-2.415-1.45h2.173V5.372L40.3,12.944l1.535-1.533L32.008,1.586a.469.469,0,0,0-.666,0l-9.826,9.824,1.535,1.533,7.537-7.573Z" transform="translate(-0.666 0)"/>
        <path id="Path_110" data-name="Path 110" d="M31.676,65.289a1.9,1.9,0,0,1-1.358-.563l-10-10a1.206,1.206,0,0,1,0-1.709L22.2,51.147a1.2,1.2,0,0,1,.855-.354h0a1.2,1.2,0,0,1,.855.356L29.139,56.4V39.832a1.209,1.209,0,0,1,1.208-1.208H33a1.209,1.209,0,0,1,1.208,1.208V56.4l5.23-5.255a1.235,1.235,0,0,1,1.711,0l1.875,1.873a1.209,1.209,0,0,1,0,1.709l-10,10a1.9,1.9,0,0,1-1.356.563ZM21.517,53.876,31.342,63.7a.47.47,0,0,0,.333.138.463.463,0,0,0,.332-.138l9.826-9.825L40.3,52.342l-7.537,7.573V40.074H30.589V59.915l-7.538-7.573Z" transform="translate(-0.666 -1.289)"/>
      </g>
    </g>
  </g>
</svg>
